<svg id="visual" viewBox="0 0 960 300" width="960" height="300" xmlns="http://www.w3.org/2000/svg" xmlns:xlink="http://www.w3.org/1999/xlink" version="1.1"><path d="M0 101L107 116L213 106L320 182L427 162L533 113L640 154L747 187L853 124L960 177L960 0L853 0L747 0L640 0L533 0L427 0L320 0L213 0L107 0L0 0Z" fill="#602294"></path><path d="M0 123L107 95L213 82L320 138L427 67L533 104L640 133L747 63L853 93L960 105L960 0L853 0L747 0L640 0L533 0L427 0L320 0L213 0L107 0L0 0Z" fill="#5c39b6"></path><path d="M0 106L107 35L213 47L320 106L427 48L533 99L640 65L747 53L853 66L960 96L960 0L853 0L747 0L640 0L533 0L427 0L320 0L213 0L107 0L0 0Z" fill="#4b4fda"></path><path d="M0 59L107 53L213 63L320 27L427 62L533 11L640 60L747 43L853 8L960 63L960 0L853 0L747 0L640 0L533 0L427 0L320 0L213 0L107 0L0 0Z" fill="#0066ff"></path></svg>