<svg id="visual" viewBox="0 0 960 390" width="960" height="390" xmlns="http://www.w3.org/2000/svg" xmlns:xlink="http://www.w3.org/1999/xlink" version="1.1"><path d="M0 139L22.8 141.7C45.7 144.3 91.3 149.7 137 143.2C182.7 136.7 228.3 118.3 274 110.3C319.7 102.3 365.3 104.7 411.2 112.3C457 120 503 133 548.8 137.2C594.7 141.3 640.3 136.7 686 135.2C731.7 133.7 777.3 135.3 823 136.5C868.7 137.7 914.3 138.3 937.2 138.7L960 139L960 0L937.2 0C914.3 0 868.7 0 823 0C777.3 0 731.7 0 686 0C640.3 0 594.7 0 548.8 0C503 0 457 0 411.2 0C365.3 0 319.7 0 274 0C228.3 0 182.7 0 137 0C91.3 0 45.7 0 22.8 0L0 0Z" fill="#715df2"></path><path d="M0 123L22.8 117.7C45.7 112.3 91.3 101.7 137 96.7C182.7 91.7 228.3 92.3 274 93.3C319.7 94.3 365.3 95.7 411.2 93.2C457 90.7 503 84.3 548.8 81.8C594.7 79.3 640.3 80.7 686 85C731.7 89.3 777.3 96.7 823 103C868.7 109.3 914.3 114.7 937.2 117.3L960 120L960 0L937.2 0C914.3 0 868.7 0 823 0C777.3 0 731.7 0 686 0C640.3 0 594.7 0 548.8 0C503 0 457 0 411.2 0C365.3 0 319.7 0 274 0C228.3 0 182.7 0 137 0C91.3 0 45.7 0 22.8 0L0 0Z" fill="#7651e8"></path><path d="M0 104L22.8 103.3C45.7 102.7 91.3 101.3 137 93.7C182.7 86 228.3 72 274 68.8C319.7 65.7 365.3 73.3 411.2 76.5C457 79.7 503 78.3 548.8 82.2C594.7 86 640.3 95 686 97.7C731.7 100.3 777.3 96.7 823 91.3C868.7 86 914.3 79 937.2 75.5L960 72L960 0L937.2 0C914.3 0 868.7 0 823 0C777.3 0 731.7 0 686 0C640.3 0 594.7 0 548.8 0C503 0 457 0 411.2 0C365.3 0 319.7 0 274 0C228.3 0 182.7 0 137 0C91.3 0 45.7 0 22.8 0L0 0Z" fill="#7a44dd"></path><path d="M0 42L22.8 46.8C45.7 51.7 91.3 61.3 137 66.7C182.7 72 228.3 73 274 72.7C319.7 72.3 365.3 70.7 411.2 65C457 59.3 503 49.7 548.8 44.8C594.7 40 640.3 40 686 39.7C731.7 39.3 777.3 38.7 823 41C868.7 43.3 914.3 48.7 937.2 51.3L960 54L960 0L937.2 0C914.3 0 868.7 0 823 0C777.3 0 731.7 0 686 0C640.3 0 594.7 0 548.8 0C503 0 457 0 411.2 0C365.3 0 319.7 0 274 0C228.3 0 182.7 0 137 0C91.3 0 45.7 0 22.8 0L0 0Z" fill="#7e36d2"></path><path d="M0 46L22.8 45.8C45.7 45.7 91.3 45.3 137 40.5C182.7 35.7 228.3 26.3 274 26.2C319.7 26 365.3 35 411.2 39.5C457 44 503 44 548.8 41.5C594.7 39 640.3 34 686 31.3C731.7 28.7 777.3 28.3 823 26.5C868.7 24.7 914.3 21.3 937.2 19.7L960 18L960 0L937.2 0C914.3 0 868.7 0 823 0C777.3 0 731.7 0 686 0C640.3 0 594.7 0 548.8 0C503 0 457 0 411.2 0C365.3 0 319.7 0 274 0C228.3 0 182.7 0 137 0C91.3 0 45.7 0 22.8 0L0 0Z" fill="#8124c7"></path></svg>