<svg id="visual" viewBox="0 0 900 600" width="900" height="600" xmlns="http://www.w3.org/2000/svg" xmlns:xlink="http://www.w3.org/1999/xlink" version="1.1"><g stroke-width="1" stroke-linejoin="bevel"><path d="M494.3 379L545.3 437L561.3 286Z" fill="#125336" stroke="#125336"></path><path d="M679.9 357L635.9 281L561.3 286Z" fill="#0a3019" stroke="#0a3019"></path><path d="M545.3 437L679.9 357L561.3 286Z" fill="#0d3c22" stroke="#0d3c22"></path><path d="M651.9 434L679.9 357L545.3 437Z" fill="#0b8666" stroke="#0b8666"></path><path d="M683.9 600L750.4 457L651.9 434Z" fill="#125336" stroke="#125336"></path><path d="M651.9 434L750.4 457L679.9 357Z" fill="#009473" stroke="#009473"></path><path d="M763.4 107L588.9 139L635.9 281Z" fill="#0a3019" stroke="#0a3019"></path><path d="M311.1 353L350.7 395L335.7 223Z" fill="#136c4d" stroke="#136c4d"></path><path d="M494.3 379L339.7 428L545.3 437Z" fill="#136c4d" stroke="#136c4d"></path><path d="M635.9 281L588.9 139L561.3 286Z" fill="#135f41" stroke="#135f41"></path><path d="M335.7 223L350.7 395L494.3 379Z" fill="#0a3019" stroke="#0a3019"></path><path d="M814.4 188L635.9 281L679.9 357Z" fill="#136c4d" stroke="#136c4d"></path><path d="M350.7 395L339.7 428L494.3 379Z" fill="#0d3c22" stroke="#0d3c22"></path><path d="M545.3 437L683.9 600L651.9 434Z" fill="#009473" stroke="#009473"></path><path d="M418.7 600L509.3 600L545.3 437Z" fill="#0d3c22" stroke="#0d3c22"></path><path d="M750.4 457L823.4 383L679.9 357Z" fill="#009473" stroke="#009473"></path><path d="M335.7 223L494.3 379L561.3 286Z" fill="#136c4d" stroke="#136c4d"></path><path d="M350.7 395L311.1 353L339.7 428Z" fill="#125336" stroke="#125336"></path><path d="M509.3 600L683.9 600L545.3 437Z" fill="#117959" stroke="#117959"></path><path d="M900 453L900 358L823.4 383Z" fill="#0a3019" stroke="#0a3019"></path><path d="M588.9 139L537.3 92L561.3 286Z" fill="#10472c" stroke="#10472c"></path><path d="M537.3 92L335.7 223L561.3 286Z" fill="#125336" stroke="#125336"></path><path d="M339.7 428L418.7 600L545.3 437Z" fill="#10472c" stroke="#10472c"></path><path d="M823.4 383L814.4 188L679.9 357Z" fill="#0a3019" stroke="#0a3019"></path><path d="M588.9 139L625.9 0L537.3 92Z" fill="#125336" stroke="#125336"></path><path d="M814.4 188L763.4 107L635.9 281Z" fill="#072610" stroke="#072610"></path><path d="M495.3 0L427.7 68L537.3 92Z" fill="#0b8666" stroke="#0b8666"></path><path d="M537.3 92L427.7 68L335.7 223Z" fill="#0d3c22" stroke="#0d3c22"></path><path d="M900 453L823.4 383L750.4 457Z" fill="#0a3019" stroke="#0a3019"></path><path d="M823.4 383L900 290L814.4 188Z" fill="#135f41" stroke="#135f41"></path><path d="M427.7 68L301.1 167L335.7 223Z" fill="#136c4d" stroke="#136c4d"></path><path d="M335.7 223L226.1 251L311.1 353Z" fill="#0b8666" stroke="#0b8666"></path><path d="M900 358L900 290L823.4 383Z" fill="#117959" stroke="#117959"></path><path d="M814.4 188L900 148L763.4 107Z" fill="#0a3019" stroke="#0a3019"></path><path d="M683.9 600L816.4 600L750.4 457Z" fill="#001c03" stroke="#001c03"></path><path d="M816.4 600L900 453L750.4 457Z" fill="#009473" stroke="#009473"></path><path d="M230.1 487L306.1 600L339.7 428Z" fill="#125336" stroke="#125336"></path><path d="M339.7 428L306.1 600L418.7 600Z" fill="#009473" stroke="#009473"></path><path d="M230.1 487L339.7 428L311.1 353Z" fill="#10472c" stroke="#10472c"></path><path d="M137.6 450L230.1 487L311.1 353Z" fill="#135f41" stroke="#135f41"></path><path d="M301.1 167L226.1 251L335.7 223Z" fill="#0b8666" stroke="#0b8666"></path><path d="M763.4 107L625.9 0L588.9 139Z" fill="#0d3c22" stroke="#0d3c22"></path><path d="M625.9 0L495.3 0L537.3 92Z" fill="#10472c" stroke="#10472c"></path><path d="M427.7 68L395.7 0L301.1 167Z" fill="#0d3c22" stroke="#0d3c22"></path><path d="M900 290L900 148L814.4 188Z" fill="#0a3019" stroke="#0a3019"></path><path d="M763.4 107L772.4 0L625.9 0Z" fill="#117959" stroke="#117959"></path><path d="M495.3 0L395.7 0L427.7 68Z" fill="#0d3c22" stroke="#0d3c22"></path><path d="M144.6 112L150.6 239L226.1 251Z" fill="#10472c" stroke="#10472c"></path><path d="M816.4 600L900 600L900 453Z" fill="#117959" stroke="#117959"></path><path d="M900 0L772.4 0L763.4 107Z" fill="#125336" stroke="#125336"></path><path d="M144.6 112L226.1 251L301.1 167Z" fill="#001c03" stroke="#001c03"></path><path d="M226.1 251L137.6 450L311.1 353Z" fill="#117959" stroke="#117959"></path><path d="M150.6 239L137.6 450L226.1 251Z" fill="#0d3c22" stroke="#0d3c22"></path><path d="M230.1 487L116.6 600L306.1 600Z" fill="#136c4d" stroke="#136c4d"></path><path d="M395.7 0L261.1 0L301.1 167Z" fill="#001c03" stroke="#001c03"></path><path d="M900 148L900 0L763.4 107Z" fill="#0b8666" stroke="#0b8666"></path><path d="M150.6 239L79.6 405L137.6 450Z" fill="#0d3c22" stroke="#0d3c22"></path><path d="M137.6 450L116.6 600L230.1 487Z" fill="#135f41" stroke="#135f41"></path><path d="M261.1 0L144.6 112L301.1 167Z" fill="#0d3c22" stroke="#0d3c22"></path><path d="M0 214L0 397L79.6 405Z" fill="#10472c" stroke="#10472c"></path><path d="M0 498L116.6 600L137.6 450Z" fill="#117959" stroke="#117959"></path><path d="M0 214L79.6 405L150.6 239Z" fill="#117959" stroke="#117959"></path><path d="M79.6 405L0 498L137.6 450Z" fill="#117959" stroke="#117959"></path><path d="M0 397L0 498L79.6 405Z" fill="#135f41" stroke="#135f41"></path><path d="M0 88L0 214L144.6 112Z" fill="#0a3019" stroke="#0a3019"></path><path d="M144.6 112L0 214L150.6 239Z" fill="#072610" stroke="#072610"></path><path d="M261.1 0L98.6 0L144.6 112Z" fill="#0d3c22" stroke="#0d3c22"></path><path d="M0 498L0 600L116.6 600Z" fill="#125336" stroke="#125336"></path><path d="M98.6 0L0 88L144.6 112Z" fill="#0d3c22" stroke="#0d3c22"></path><path d="M98.6 0L0 0L0 88Z" fill="#009473" stroke="#009473"></path></g></svg>