<svg id="visual" viewBox="0 0 960 300" width="960" height="300" xmlns="http://www.w3.org/2000/svg" xmlns:xlink="http://www.w3.org/1999/xlink" version="1.1"><path d="M0 173L87 215L175 210L262 214L349 200L436 203L524 177L611 194L698 186L785 203L873 208L960 171L960 301L873 301L785 301L698 301L611 301L524 301L436 301L349 301L262 301L175 301L87 301L0 301Z" fill="#f7ae0f"></path><path d="M0 204L87 220L175 209L262 232L349 221L436 220L524 242L611 242L698 213L785 228L873 206L960 220L960 301L873 301L785 301L698 301L611 301L524 301L436 301L349 301L262 301L175 301L87 301L0 301Z" fill="#ff6f36"></path><path d="M0 216L87 258L175 251L262 223L349 240L436 255L524 256L611 227L698 227L785 216L873 217L960 257L960 301L873 301L785 301L698 301L611 301L524 301L436 301L349 301L262 301L175 301L87 301L0 301Z" fill="#ff1d64"></path><path d="M0 238L87 244L175 237L262 250L349 244L436 249L524 264L611 265L698 250L785 247L873 260L960 240L960 301L873 301L785 301L698 301L611 301L524 301L436 301L349 301L262 301L175 301L87 301L0 301Z" fill="#da0097"></path><path d="M0 275L87 279L175 287L262 261L349 285L436 274L524 261L611 267L698 289L785 287L873 283L960 260L960 301L873 301L785 301L698 301L611 301L524 301L436 301L349 301L262 301L175 301L87 301L0 301Z" fill="#8124c7"></path></svg>